<svg width="10" height="10" viewBox="0 0 10 10" fill="none" xmlns="http://www.w3.org/2000/svg">
<g opacity="0.5">
<path d="M9.8817 0.118315C9.72394 -0.0394384 9.46818 -0.0394384 9.31043 0.118315L0.118315 9.31039C-0.0394385 9.46815 -0.0394385 9.72391 0.118315 9.88166C0.197183 9.96057 0.300581 9.99998 0.40396 9.99998C0.507339 9.99998 0.610718 9.96055 0.689605 9.88164L9.8817 0.689564C10.0394 0.53183 10.0394 0.276069 9.8817 0.118315Z" fill="#D50000"/>
<path d="M9.88168 9.31137L0.689566 0.119292C0.531831 -0.0384618 0.27605 -0.0384618 0.118316 0.119292C-0.0394385 0.277026 -0.0394385 0.532787 0.118316 0.690541L9.31043 9.88264C9.3893 9.96152 9.4927 10.001 9.59608 10.001C9.69945 10.001 9.80285 9.96152 9.8817 9.88266C10.0394 9.72488 10.0394 9.46912 9.88168 9.31137Z" fill="#D50000"/>
</g>
</svg>
