<svg width="30" height="30" viewBox="0 0 30 30" fill="none" xmlns="http://www.w3.org/2000/svg">
<path d="M21.8793 0H8.12073C3.64288 0 0 3.64288 0 8.12073V21.8795C0 26.3571 3.64288 30 8.12073 30H21.8795C26.3571 30 30 26.3571 30 21.8795V8.12073C30 3.64288 26.3571 0 21.8793 0V0ZM15 23.2029C10.4768 23.2029 6.7971 19.5232 6.7971 15C6.7971 10.4768 10.4768 6.7971 15 6.7971C19.5232 6.7971 23.2029 10.4768 23.2029 15C23.2029 19.5232 19.5232 23.2029 15 23.2029V23.2029ZM23.399 8.73161C22.0624 8.73161 20.9752 7.64442 20.9752 6.30775C20.9752 4.97108 22.0624 3.88367 23.399 3.88367C24.7357 3.88367 25.8231 4.97108 25.8231 6.30775C25.8231 7.64442 24.7357 8.73161 23.399 8.73161Z" fill="white"/>
<circle cx="15" cy="15" r="5.5" stroke="white"/>
</svg>
