<svg width="31" height="30" viewBox="0 0 31 30" fill="none" xmlns="http://www.w3.org/2000/svg">
<path d="M21.1632 0H9.0375C4.10953 0 0.100342 4.00919 0.100342 8.93716V21.0628C0.100342 25.9908 4.10953 30 9.0375 30H21.1632C26.0912 30 30.1003 25.9908 30.1003 21.0628V8.93716C30.1003 4.00919 26.0911 0 21.1632 0ZM27.0823 21.0628C27.0823 24.3319 24.4322 26.982 21.1632 26.982H9.0375C5.76847 26.982 3.11834 24.3319 3.11834 21.0628V8.93716C3.11834 5.66807 5.76847 3.018 9.0375 3.018H21.1632C24.4322 3.018 27.0823 5.66807 27.0823 8.93716V21.0628Z" fill="white"/>
<path d="M15.1003 7.24091C10.822 7.24091 7.34127 10.7216 7.34127 14.9999C7.34127 19.2782 10.822 22.759 15.1003 22.759C19.3787 22.759 22.8594 19.2783 22.8594 14.9999C22.8594 10.7216 19.3787 7.24091 15.1003 7.24091ZM15.1003 19.741C12.4819 19.741 10.3593 17.6184 10.3593 15C10.3593 12.3815 12.482 10.2589 15.1003 10.2589C17.7188 10.2589 19.8414 12.3815 19.8414 15C19.8414 17.6184 17.7187 19.741 15.1003 19.741Z" fill="white"/>
<path d="M22.8744 9.15842C23.9013 9.15842 24.7337 8.32602 24.7337 7.29919C24.7337 6.27237 23.9013 5.43996 22.8744 5.43996C21.8476 5.43996 21.0152 6.27237 21.0152 7.29919C21.0152 8.32602 21.8476 9.15842 22.8744 9.15842Z" fill="white"/>
</svg>
