<svg width="159" height="65" viewBox="0 0 159 65" fill="none" xmlns="http://www.w3.org/2000/svg">
<path d="M0.145508 27.2038V0.352051H13.9517L16.0953 10.6019L17.7666 0.352051H31.8635V27.2038H22.5988V13.3448H22.1628L19.8739 26.9151H12.1351L9.8462 13.3448H9.41021V27.2038H0.145508Z" fill="white"/>
<path d="M43.9321 13.8863C43.8376 15.5697 44.0468 17.2565 44.5498 18.8668C44.8403 19.3292 45.2446 19.7106 45.7245 19.975C46.2044 20.2394 46.7441 20.3781 47.2928 20.3781C47.8416 20.3781 48.3813 20.2394 48.8612 19.975C49.3411 19.7106 49.7454 19.3292 50.0359 18.8668C50.5337 17.2557 50.7307 15.5678 50.6172 13.8863C50.7174 12.2051 50.5207 10.5195 50.0359 8.90568C49.7454 8.44325 49.3411 8.06189 48.8612 7.79749C48.3813 7.53309 47.8416 7.39436 47.2928 7.39436C46.7441 7.39436 46.2044 7.53309 45.7245 7.79749C45.2446 8.06189 44.8403 8.44325 44.5498 8.90568C44.0606 10.519 43.8518 12.2033 43.9321 13.8863V13.8863ZM60.0273 13.8863C60.3442 17.7362 59.2756 21.573 57.0117 24.7136C55.7259 25.932 54.1899 26.8597 52.5092 27.4328C50.8284 28.0059 49.0427 28.211 47.2747 28.0339C45.5133 28.1939 43.7378 27.9806 42.0655 27.4082C40.3933 26.8358 38.8624 25.9174 37.574 24.7136C35.2615 21.595 34.1761 17.7443 34.5221 13.8863C34.2077 10.1208 35.2934 6.37153 37.574 3.34766C38.8574 2.13851 40.3887 1.21906 42.0629 0.652212C43.7372 0.0853642 45.515 -0.115497 47.2747 0.0633718C49.0417 -0.0971369 50.8228 0.11575 52.501 0.688032C54.1793 1.26031 55.7165 2.17903 57.0117 3.38375C59.3085 6.3844 60.385 10.1335 60.0273 13.8863V13.8863Z" fill="white"/>
<path d="M63.061 8.03961V0.496582H82.9711V8.03961H77.7756V27.3483H68.5109V8.03961H63.061Z" fill="white"/>
<path d="M100.065 27.2038V17.8562H94.87V27.2038H85.6416V0.352051H94.87V10.2771H100.065V0.352051H109.33V27.2038H100.065Z" fill="white"/>
<path d="M112.738 27.2038V0.352051H132.794V7.75072H121.894V10.0245H130.25V17.4953H121.894V19.9134H132.794V27.2038H112.738Z" fill="white"/>
<path d="M146.728 20.2742H144.439V27.2037H135.319V0.351964H146.728C149.813 0.0959487 152.899 0.843292 155.52 2.48134C156.537 3.48737 157.301 4.71776 157.749 6.07238C158.198 7.42701 158.318 8.86762 158.1 10.277C158.254 11.7352 158.076 13.2091 157.579 14.5897C157.082 15.9704 156.279 17.2224 155.229 18.2531L157.809 27.4563H148.399L146.728 20.2742ZM146.728 13.056C148.108 13.056 148.69 12.1537 148.69 10.4936C148.69 8.83336 148.072 7.75063 146.728 7.75063H144.729V13.0199L146.728 13.056Z" fill="white"/>
<path d="M11.5173 57.1957H9.2647V64.1251H0V37.1651H11.2266C14.3069 36.9165 17.3868 37.6497 20.019 39.2584C21.0487 40.2464 21.8339 41.4579 22.313 42.7979C22.792 44.138 22.952 45.5701 22.7803 46.9819C22.9296 48.4428 22.7459 49.9185 22.2428 51.2992C21.7396 52.68 20.9299 53.9305 19.8737 54.958L22.4533 64.1612H13.0433L11.5173 57.1957ZM11.5173 49.797C12.8979 49.797 13.5156 48.8947 13.5156 47.2345C13.5156 45.5743 12.7526 44.5277 11.372 44.5277H9.41003V49.797H11.5173Z" fill="white"/>
<path d="M33.6799 37.1648V54.8133C33.6407 55.119 33.6763 55.4296 33.7838 55.7187C33.8914 56.0077 34.0676 56.2667 34.2976 56.4735C34.9082 56.805 35.6018 56.9553 36.2959 56.9066C36.9778 56.9484 37.6578 56.7983 38.2578 56.4735C38.6644 56.0157 38.8846 55.4238 38.8755 54.8133V37.1648H48.1402V54.1998C48.3061 55.6672 48.1303 57.1529 47.6263 58.5422C47.1223 59.9314 46.3037 61.187 45.2336 62.212C42.5921 63.9343 39.4436 64.7225 36.2959 64.4496C33.139 64.6948 29.9879 63.9091 27.3218 62.212C26.2851 61.1947 25.4896 59.9607 24.9932 58.5997C24.4967 57.2388 24.3117 55.785 24.4516 54.3441V37.1648H33.6799Z" fill="white"/>
<path d="M70.5932 44.8525C67.8689 44.5057 65.1281 44.3009 62.3822 44.2389C61.3735 44.1507 60.3573 44.2115 59.3666 44.4194C59.0396 44.4194 58.8943 44.7081 58.8943 44.9968C58.8943 45.2856 58.8943 45.466 59.3666 45.7547C60.3416 46.1138 61.3526 46.3679 62.3822 46.5127C63.7689 46.7865 65.1395 47.136 66.4877 47.5593C67.5434 47.8796 68.5293 48.3938 69.3943 49.0751C70.2443 49.637 70.8431 50.5033 71.0656 51.4932C71.3754 52.671 71.522 53.8852 71.5015 55.1023C71.6439 56.4206 71.4859 57.7538 71.0394 59.0033C70.5929 60.2528 69.8692 61.3865 68.922 62.3205C66.5957 63.8573 63.8258 64.5927 61.0379 64.4138C59.3666 64.4138 57.4047 64.4138 55.7334 64.1251C54.2885 63.9703 52.8561 63.7171 51.4462 63.3672L49.9566 63.0784L50.3925 55.8602C53.7089 56.4 57.0602 56.7016 60.4202 56.7625C61.8008 56.7625 62.5638 56.4738 62.5638 55.8602C62.5638 55.2467 62.5638 55.4271 62.0915 55.2828C61.2593 55.0023 60.3902 54.8442 59.5119 54.8136C56.7862 54.5856 54.1682 53.6524 51.9185 52.1068C51.1726 51.2659 50.6126 50.2789 50.2746 49.2097C49.9367 48.1404 49.8283 47.0126 49.9566 45.8991C49.8246 44.5815 49.9875 43.2512 50.4334 42.0033C50.8794 40.7555 51.5974 39.621 52.5361 38.6809C54.9038 37.1538 57.7167 36.4553 60.5292 36.6959C63.5331 36.7703 66.5298 37.0234 69.5033 37.4538L71.1745 37.7786L70.5932 44.8525Z" fill="white"/>
<path d="M93.5192 44.8523C90.807 44.5059 88.0783 44.3011 85.3445 44.2388C84.3238 44.1517 83.2957 44.2125 82.2926 44.4192C82.0019 44.4192 81.8203 44.7079 81.8203 44.9967C81.8203 45.2854 81.8203 45.4659 82.2926 45.7546C83.2808 46.1112 84.3036 46.3652 85.3445 46.5125C86.7195 46.7858 88.078 47.1352 89.4137 47.5591C90.4694 47.8795 91.4553 48.3936 92.3203 49.075C92.7537 49.3394 93.1265 49.6912 93.4143 50.1078C93.7022 50.5243 93.8989 50.9963 93.9915 51.4931C94.3014 52.6708 94.448 53.885 94.4275 55.1022C94.5699 56.4205 94.4119 57.7537 93.9654 59.0031C93.5189 60.2526 92.7952 61.3863 91.8479 62.3204C89.5217 63.8572 86.7518 64.5926 83.9639 64.4137C82.2926 64.4137 80.3307 64.4137 78.6594 64.1249C77.2259 63.9743 75.8052 63.721 74.4085 63.367L72.8826 63.0783L73.3185 55.8601C76.6349 56.3999 79.9862 56.7014 83.3462 56.7624C84.7268 56.7624 85.4898 56.4736 85.4898 55.8601C85.4898 55.2465 85.4898 55.427 85.0175 55.2826C84.1853 55.0021 83.3162 54.844 82.4379 54.8134C79.7122 54.5855 77.0942 53.6522 74.8445 52.1066C74.1062 51.261 73.551 50.2735 73.2134 49.2055C72.8759 48.1376 72.7633 47.012 72.8826 45.899C72.7506 44.5813 72.9135 43.251 73.3594 42.0032C73.8054 40.7553 74.5234 39.6208 75.4621 38.6807C77.8399 37.1458 80.6669 36.4469 83.4915 36.6957C86.4954 36.7701 89.4922 37.0232 92.4656 37.4536L94.1369 37.7785L93.5192 44.8523Z" fill="white"/>
<path d="M96.2441 64.0165V37.1648H105.509V64.0165H96.2441Z" fill="white"/>
<path d="M106.599 64.0165L112.521 37.1648H126.472L132.54 64.0165H123.275L122.548 60.9849H116.445L115.863 64.0165H106.599ZM119.024 44.4191L117.535 53.7667H121.459L120.114 44.4191H119.024Z" fill="white"/>
<path d="M157.754 64.0166H148.054V60.4075L151.687 58.1338H148.054V54.5247H157.754V58.1338L153.831 60.4075H157.754V64.0166Z" fill="white"/>
<path d="M157.754 53.1534H148.054V45.6104H150.779V49.6886H151.542V46.3683H154.267V49.5443H155.175V45.6104H157.9V53.1534H157.754Z" fill="white"/>
<path d="M150.779 45.1409H148.054V37.5979H150.779V39.5829H157.754V43.192H150.779V45.1409Z" fill="white"/>
<path d="M138.935 55.1021L133.775 57.6646L134.829 52.1066L130.578 48.1726L136.355 47.4147L138.935 42.2898L141.369 47.4147L147.146 48.1726L143.04 52.1066L143.948 57.6646L138.935 55.1021Z" fill="#D50000"/>
</svg>
