<svg width="20" height="14" viewBox="0 0 20 14" fill="none" xmlns="http://www.w3.org/2000/svg">
<path d="M19.2877 0H0.912838C0.670903 0 0.475342 0.195561 0.475342 0.437496V13.5624C0.475342 13.8043 0.670903 13.9999 0.912838 13.9999H19.2877C19.5292 13.9999 19.7252 13.8043 19.7252 13.5624V0.437496C19.7252 0.195561 19.5292 0 19.2877 0ZM18.8502 12.0666L13.4305 6.64732L12.8119 7.26594L18.6708 13.1249H1.52971L7.38866 7.26594L6.77004 6.64732L1.35033 12.0666V0.874992H18.8502V12.0666Z" fill="white"/>
<path d="M17.966 0.875L10.1003 8.74074L2.23452 0.875H1.35034V1.22806L9.79096 9.66867C9.96202 9.83973 10.2385 9.83973 10.4096 9.66867L18.8502 1.22806V0.875H17.966Z" fill="white"/>
</svg>
