<svg width="40" height="40" viewBox="0 0 40 40" fill="none" xmlns="http://www.w3.org/2000/svg">
<path d="M19.9999 0C31.0462 0 40 8.95499 40 20.0001C40 31.0464 31.0462 40 19.9999 40C8.95362 40 0 31.0462 0 20.0001C0 8.95499 8.95376 0 19.9999 0Z" fill="#C8232C"/>
<path d="M20.6055 8.75757C13.558 8.75757 10.0068 13.6501 10.0068 17.7288C10.0068 20.1988 10.9718 22.3962 13.0443 23.215C13.3831 23.3487 13.6894 23.2199 13.7869 22.8562L14.0894 21.7024C14.1893 21.3436 14.1506 21.2162 13.8768 20.9025C13.278 20.2211 12.8981 19.3374 12.8981 18.0862C12.8981 14.4574 15.7019 11.2086 20.1994 11.2086C24.1832 11.2086 26.3706 13.5649 26.3706 16.7112C26.3706 20.8512 24.4781 24.3462 21.6681 24.3462C20.1181 24.3462 18.9557 23.105 19.3282 21.5787C19.7732 19.7612 20.6382 17.7974 20.6382 16.4837C20.6382 15.31 19.987 14.3274 18.637 14.3274C17.0507 14.3274 15.777 15.9162 15.777 18.0448C15.777 19.4012 16.2507 20.3174 16.2507 20.3174L14.342 28.1436C13.7758 30.4649 14.2583 33.3124 14.2982 33.5999C14.3232 33.7699 14.5482 33.8098 14.6507 33.6824C14.7969 33.4974 16.6857 31.2386 17.3282 28.9812C17.5106 28.3424 18.372 25.0336 18.372 25.0336C18.887 25.9873 20.3933 26.8249 21.9945 26.8249C26.7607 26.8249 29.9958 22.6162 29.9958 16.9836C29.9943 12.725 26.2693 8.75757 20.6055 8.75757Z" fill="white"/>
</svg>
