<svg width="40" height="41" viewBox="0 0 40 41" fill="none" xmlns="http://www.w3.org/2000/svg">
<path d="M20.0008 40.2838C31.0464 40.2838 40.0006 31.3296 40.0006 20.284C40.0006 9.23841 31.0464 0.28418 20.0008 0.28418C8.9552 0.28418 0.000976562 9.23841 0.000976562 20.284C0.000976562 31.3296 8.9552 40.2838 20.0008 40.2838Z" fill="#55ACEE"/>
<path d="M32.2514 14.6575C31.3943 15.0376 30.4723 15.2946 29.5055 15.4094C30.4927 14.818 31.2503 13.8821 31.6078 12.7652C30.6841 13.3131 29.6606 13.7106 28.5721 13.9249C27.7001 12.9962 26.4576 12.4158 25.0818 12.4158C22.4422 12.4158 20.3013 14.5566 20.3013 17.1963C20.3013 17.571 20.3437 17.9357 20.4257 18.2858C16.4527 18.0865 12.93 16.1834 10.572 13.2903C10.1606 13.9962 9.92455 14.818 9.92455 15.6939C9.92455 17.3521 10.7691 18.8159 12.0512 19.673C11.2679 19.6484 10.5303 19.4334 9.88605 19.0744C9.88569 19.0947 9.88569 19.1151 9.88569 19.135C9.88569 21.4513 11.5342 23.3833 13.7207 23.8221C13.32 23.9319 12.8968 23.9901 12.4615 23.9901C12.1528 23.9901 11.8537 23.9605 11.562 23.9048C12.1702 25.8037 13.9354 27.1859 16.0277 27.2247C14.3913 28.5071 12.3303 29.2711 10.09 29.2711C9.70494 29.2711 9.32347 29.2487 8.9502 29.2041C11.0647 30.561 13.5781 31.3521 16.2777 31.3521C25.0708 31.3521 29.8795 24.0678 29.8795 17.75C29.8795 17.5428 29.8748 17.3364 29.8655 17.1318C30.8003 16.4579 31.6107 15.6162 32.2514 14.6575Z" fill="#F1F2F2"/>
</svg>
