<svg width="30" height="30" viewBox="0 0 30 30" fill="none" xmlns="http://www.w3.org/2000/svg">
<path d="M15 0C6.71625 0 0 6.71625 0 15C0 23.2838 6.71625 30 15 30C23.2838 30 30 23.2838 30 15C30 6.7144 23.2838 0 15 0ZM22.4625 11.6325L22.4737 12.1106C22.4737 16.9931 18.7594 22.6181 11.9662 22.6181C9.88123 22.6181 7.94057 22.0069 6.30559 20.9587C6.59437 20.9925 6.8887 21.0112 7.18686 21.0112C8.9175 21.0112 10.5094 20.4206 11.7731 19.4306C10.1569 19.4006 8.79371 18.3318 8.3231 16.8656C8.54996 16.9087 8.77872 16.9294 9.01871 16.9294C9.35622 16.9294 9.68244 16.8863 9.99182 16.8019C8.30244 16.4606 7.02933 14.97 7.02933 13.1813V13.1344C7.52806 13.4119 8.09619 13.5769 8.70181 13.5976C7.7118 12.9357 7.05931 11.805 7.05931 10.5244C7.05931 9.84755 7.2412 9.2138 7.55804 8.66819C9.37867 10.9032 12.1012 12.3732 15.1705 12.5269C15.1068 12.2569 15.0749 11.9738 15.0749 11.6851C15.0749 9.64697 16.7287 7.99318 18.7687 7.99318C19.8299 7.99318 20.79 8.44128 21.4649 9.1594C22.3049 8.9925 23.0962 8.68503 23.8105 8.26315C23.5349 9.12566 22.9499 9.8494 22.1868 10.3069C22.9312 10.2187 23.6456 10.0181 24.3074 9.72561C23.8125 10.4643 23.1843 11.115 22.4625 11.6325Z" fill="#55ACEE"/>
</svg>
