<svg width="25" height="30" viewBox="0 0 25 30" fill="none" xmlns="http://www.w3.org/2000/svg">
<path d="M9.84874 0H8.1442L7.00784 4.31249L5.87148 0H3.97754C4.35633 1.125 4.73511 2.06249 5.1139 3.18749C5.68208 4.68749 6.06087 5.99998 6.06087 6.74998V11.25H7.76541V6.74998L9.84874 0ZM14.3942 8.43747V5.62498C14.3942 4.68749 14.2048 4.12499 13.826 3.56249C13.4472 2.99999 12.879 2.81249 12.1215 2.81249C11.3639 2.81249 10.7957 3.18749 10.4169 3.74999C10.0381 4.12499 9.84874 4.68749 9.84874 5.62498V8.62497C9.84874 9.56247 10.0381 10.125 10.4169 10.5C10.7957 11.0625 11.3639 11.25 12.1215 11.25C12.879 11.25 13.4472 10.875 13.826 10.3125C14.2048 10.125 14.3942 9.37497 14.3942 8.43747ZM12.879 8.81247C12.879 9.56247 12.6896 9.93747 12.1215 9.93747C11.5533 9.93747 11.3639 9.56247 11.3639 8.81247V5.24998C11.3639 4.49999 11.5533 4.12499 12.1215 4.12499C12.6896 4.12499 12.879 4.49999 12.879 5.24998V8.81247ZM20.076 11.25V2.81249H18.5609V9.18747C18.1821 9.74997 17.9927 9.93747 17.6139 9.93747C17.4245 9.93747 17.2351 9.74997 17.2351 9.56247C17.2351 9.56247 17.2351 9.37497 17.2351 8.99997V2.81249H15.7199V9.37497C15.7199 9.93747 15.7199 10.3125 15.9093 10.6875C15.9093 11.0625 16.2881 11.25 16.8563 11.25C17.4245 11.25 17.9927 10.875 18.5609 10.3125V11.25H20.076V11.25Z" fill="white"/>
<path d="M20.8335 19.6874C20.2653 19.6874 20.0759 20.0624 20.0759 20.8124V21.5624H21.5911V20.8124C21.5911 20.0624 21.4017 19.6874 20.8335 19.6874Z" fill="white"/>
<path d="M15.3413 19.6874C15.1519 19.6874 14.7731 19.8749 14.5837 20.0624V25.1249C14.7731 25.3124 15.1519 25.4999 15.3413 25.4999C15.7201 25.4999 15.9095 25.1249 15.9095 24.3749V20.8124C15.9095 20.0624 15.7201 19.6874 15.3413 19.6874V19.6874Z" fill="white"/>
<path d="M24.6212 15.5626C24.2424 14.2501 23.1061 13.1251 21.9697 13.1251C18.9394 12.7501 15.7197 12.7501 12.5 12.7501C9.2803 12.7501 6.25 12.7501 3.0303 13.1251C1.89394 13.1251 0.757576 14.2501 0.378788 15.5626C8.46657e-08 17.4375 0 19.5 0 21.375C0 23.25 8.46657e-08 25.3125 0.378788 27.1875C0.757576 28.5 1.70455 29.4375 3.0303 29.625C6.25 30 9.2803 30 12.5 30C15.7197 30 18.75 30 21.9697 29.625C23.2955 29.4375 24.4318 28.5 24.6212 27.1875C25 25.3125 25 23.25 25 21.375C25 19.5 25 17.4375 24.6212 15.5626ZM7.19697 17.25H5.30303V26.8125H3.59848V17.25H1.89394V15.5626H7.19697V17.25ZM11.7424 26.8125H10.2273V25.875C9.65909 26.625 9.09091 26.8125 8.52273 26.8125C7.95454 26.8125 7.76515 26.625 7.57576 26.25C7.57576 26.0625 7.38636 25.6875 7.38636 24.9375V18.375H8.90151V24.375C8.90151 24.75 8.90151 24.9375 8.90151 24.9375C8.90151 25.125 9.09091 25.3125 9.2803 25.3125C9.65909 25.3125 9.84848 25.125 10.2273 24.5625V18.375H11.7424V26.8125ZM17.4242 24.1875C17.4242 24.9375 17.4242 25.5 17.2348 25.875C17.0455 26.4375 16.6667 26.8125 16.0985 26.8125C15.5303 26.8125 14.9621 26.4375 14.5833 25.875V26.625H13.0682V15.5626H14.5833V19.125C15.1515 18.5625 15.5303 18.1875 16.0985 18.1875C16.6667 18.1875 17.0455 18.5625 17.2348 19.125C17.4242 19.5 17.4242 20.0625 17.4242 20.8125V24.1875V24.1875ZM23.1061 22.875H20.0758V24.375C20.0758 25.125 20.2652 25.5 20.8333 25.5C21.2121 25.5 21.4015 25.3125 21.5909 24.9375C21.5909 24.9375 21.5909 24.5625 21.5909 24H23.1061V24.1875C23.1061 24.75 23.1061 24.9375 23.1061 25.125C23.1061 25.5 22.9167 25.6875 22.7273 26.0625C22.3485 26.625 21.7803 27 20.8333 27C20.0758 27 19.5076 26.625 18.9394 26.0625C18.5606 25.6875 18.3712 24.9375 18.3712 24.1875V21.375C18.3712 20.4375 18.5606 19.875 18.75 19.5C19.1288 18.9375 19.697 18.5625 20.6439 18.5625C21.4015 18.5625 21.9697 18.9375 22.3485 19.5C22.7273 19.875 22.7273 20.625 22.7273 21.375V22.875H23.1061Z" fill="white"/>
</svg>
